<mxfile host="app.diagrams.net" modified="2023-10-19T08:01:46.767Z" agent="Mozilla/5.0 (Macintosh; Intel Mac OS X 10_15_7) AppleWebKit/537.36 (KHTML, like Gecko) Chrome/117.0.0.0 Safari/537.36" etag="YgI75w6qwaU42uUwyxeE" version="21.7.5" type="device">
  <diagram name="Page-1" id="t01YMTCzphamDq3TDsaQ">
    <mxGraphModel dx="1306" dy="689" grid="1" gridSize="10" guides="1" tooltips="1" connect="1" arrows="1" fold="1" page="1" pageScale="1" pageWidth="850" pageHeight="1100" math="0" shadow="0">
      <root>
        <mxCell id="0" />
        <mxCell id="1" parent="0" />
        <mxCell id="zmVc5gjud7ur9hXCD-rV-1" value="Pack" style="rounded=0;whiteSpace=wrap;html=1;" parent="1" vertex="1">
          <mxGeometry x="320" y="240" width="120" height="60" as="geometry" />
        </mxCell>
        <mxCell id="zmVc5gjud7ur9hXCD-rV-2" value="PackTemplate" style="rounded=0;whiteSpace=wrap;html=1;" parent="1" vertex="1">
          <mxGeometry x="320" y="100" width="120" height="60" as="geometry" />
        </mxCell>
        <mxCell id="zmVc5gjud7ur9hXCD-rV-3" value="PackSellers" style="rounded=0;whiteSpace=wrap;html=1;" parent="1" vertex="1">
          <mxGeometry x="540" y="230" width="120" height="60" as="geometry" />
        </mxCell>
        <mxCell id="zmVc5gjud7ur9hXCD-rV-4" value="PackImages" style="rounded=0;whiteSpace=wrap;html=1;" parent="1" vertex="1">
          <mxGeometry x="530" y="100" width="120" height="60" as="geometry" />
        </mxCell>
        <mxCell id="zmVc5gjud7ur9hXCD-rV-5" value="PackTemplateBenefits" style="rounded=0;whiteSpace=wrap;html=1;" parent="1" vertex="1">
          <mxGeometry x="130" y="100" width="120" height="60" as="geometry" />
        </mxCell>
        <mxCell id="zmVc5gjud7ur9hXCD-rV-6" value="PackBenefits" style="rounded=0;whiteSpace=wrap;html=1;" parent="1" vertex="1">
          <mxGeometry x="130" y="240" width="120" height="60" as="geometry" />
        </mxCell>
        <mxCell id="zmVc5gjud7ur9hXCD-rV-7" value="PackAccessAttributes" style="rounded=0;whiteSpace=wrap;html=1;" parent="1" vertex="1">
          <mxGeometry x="320" y="350" width="120" height="60" as="geometry" />
        </mxCell>
        <mxCell id="zmVc5gjud7ur9hXCD-rV-8" value="" style="endArrow=classic;html=1;rounded=0;entryX=0;entryY=0.5;entryDx=0;entryDy=0;exitX=1;exitY=0.5;exitDx=0;exitDy=0;" parent="1" source="zmVc5gjud7ur9hXCD-rV-5" target="zmVc5gjud7ur9hXCD-rV-2" edge="1">
          <mxGeometry width="50" height="50" relative="1" as="geometry">
            <mxPoint x="240" y="180" as="sourcePoint" />
            <mxPoint x="290" y="130" as="targetPoint" />
          </mxGeometry>
        </mxCell>
        <mxCell id="zmVc5gjud7ur9hXCD-rV-10" value="" style="endArrow=classic;html=1;rounded=0;exitX=0.425;exitY=1;exitDx=0;exitDy=0;exitPerimeter=0;entryX=0.992;entryY=0.133;entryDx=0;entryDy=0;entryPerimeter=0;" parent="1" source="zmVc5gjud7ur9hXCD-rV-4" target="zmVc5gjud7ur9hXCD-rV-1" edge="1">
          <mxGeometry width="50" height="50" relative="1" as="geometry">
            <mxPoint x="450" y="240" as="sourcePoint" />
            <mxPoint x="490" y="270" as="targetPoint" />
          </mxGeometry>
        </mxCell>
        <mxCell id="zmVc5gjud7ur9hXCD-rV-11" value="" style="endArrow=classic;html=1;rounded=0;exitX=-0.033;exitY=0.65;exitDx=0;exitDy=0;exitPerimeter=0;entryX=1;entryY=0.5;entryDx=0;entryDy=0;" parent="1" source="zmVc5gjud7ur9hXCD-rV-3" target="zmVc5gjud7ur9hXCD-rV-1" edge="1">
          <mxGeometry width="50" height="50" relative="1" as="geometry">
            <mxPoint x="420" y="320" as="sourcePoint" />
            <mxPoint x="470" y="270" as="targetPoint" />
          </mxGeometry>
        </mxCell>
        <mxCell id="zmVc5gjud7ur9hXCD-rV-12" value="" style="endArrow=classic;html=1;rounded=0;exitX=1;exitY=0.5;exitDx=0;exitDy=0;" parent="1" source="zmVc5gjud7ur9hXCD-rV-6" edge="1">
          <mxGeometry width="50" height="50" relative="1" as="geometry">
            <mxPoint x="270" y="320" as="sourcePoint" />
            <mxPoint x="320" y="270" as="targetPoint" />
          </mxGeometry>
        </mxCell>
        <mxCell id="zmVc5gjud7ur9hXCD-rV-14" value="" style="endArrow=classic;html=1;rounded=0;exitX=0.583;exitY=0.033;exitDx=0;exitDy=0;exitPerimeter=0;" parent="1" source="zmVc5gjud7ur9hXCD-rV-7" edge="1">
          <mxGeometry width="50" height="50" relative="1" as="geometry">
            <mxPoint x="340" y="350" as="sourcePoint" />
            <mxPoint x="390" y="300" as="targetPoint" />
          </mxGeometry>
        </mxCell>
        <mxCell id="zmVc5gjud7ur9hXCD-rV-15" value="" style="endArrow=classic;html=1;rounded=0;exitX=0.592;exitY=-0.083;exitDx=0;exitDy=0;exitPerimeter=0;" parent="1" source="zmVc5gjud7ur9hXCD-rV-1" edge="1">
          <mxGeometry width="50" height="50" relative="1" as="geometry">
            <mxPoint x="390" y="230" as="sourcePoint" />
            <mxPoint x="390" y="160" as="targetPoint" />
          </mxGeometry>
        </mxCell>
      </root>
    </mxGraphModel>
  </diagram>
</mxfile>
